<?xml version="1.0" encoding="UTF-8" standalone="no"?>
<!DOCTYPE svg PUBLIC "-//W3C//DTD SVG 1.1//EN" "http://www.w3.org/Graphics/SVG/1.1/DTD/svg11.dtd">
<svg height="100%" stroke-miterlimit="10" style="fill-rule:nonzero;clip-rule:evenodd;stroke-linecap:round;stroke-linejoin:round;" version="1.1" viewBox="0 0 180 180" width="100%" xml:space="preserve" xmlns="http://www.w3.org/2000/svg" xmlns:vectornator="http://vectornator.io" xmlns:xlink="http://www.w3.org/1999/xlink">
<path d="M139.485 36.2768C138.258 35.3389 135.395 34.9877 134.355 36.5814C132.503 39.4191 132.12 42.1997 123.202 57.1207C113.894 72.6946 104.953 78.8477 86.8789 94.9415C68.9621 110.895 55.7773 139.614 57.034 148.062C57.2085 149.235 58.7178 150.967 59.8327 151.353C81.7444 156.841 109.734 146.753 130.031 123.797C155.574 94.9093 159.448 56.4449 139.485 36.2768ZM126.734 27.559C104.096 17.7666 72.2702 27.476 49.816 52.8711C23.4698 82.6679 20.0457 122.699 42.1942 142.283C42.892 142.9 43.6598 143.391 44.3908 143.953C45.5401 144.538 46.54 143.48 47.0047 142.403C48.1191 139.821 47.1962 138.757 55.3397 121.983C70.3283 91.1079 90.8763 82.9356 103.96 69.0394C116.587 55.6292 119.571 48.7579 127.531 30.4931C127.803 29.8695 127.858 28.2096 126.734 27.559Z" fill="#d9d9d9" fill-rule="nonzero" opacity="1" stroke="none"/>
</svg>
